# AST/ASF file generated using VICON BodyLanguage
# -----------------------------------------------
:version 1.10
:name VICON
:units
  mass 1.0
  length 0.45
  angle deg
:documentation
   .ast/.asf automatically generated from VICON data using
   VICON BodyBuilder and BodyLanguage model FoxedUp or BRILLIANT.MOD
:root
   order TX TY TZ RX RY RZ
   axis XYZ
   position 0 0 0  
   orientation 0 0 0 
:bonedata
  begin
     id 1 
     name lhipjoint
     direction 0.570549 -0.739093 0.358072 
     length 2.41801 
     axis 0 0 0  XYZ
  end
  begin
     id 2 
     name lfemur
     direction 0.34202 -0.939693 0  
     length 7.44434  
     axis 0 0 20  XYZ
    dof rx ry rz
    limits (-160.0 20.0)
           (-70.0 70.0)
           (-60.0 70.0)
  end
  begin
     id 3 
     name ltibia
     direction 0.34202 -0.939693 0   
     length 7.60047   
     axis 0 0 20   XYZ
    dof rx
    limits (-10.0 170.0)
  end
  begin
     id 4 
     name lfoot
     direction 0.0909041 -0.249757 0.964032   
     length 2.03437   
     axis -90 7.62852e-016 20   XYZ
    dof rx rz
    limits (-45.0 90.0)
           (-70.0 20.0)
  end
  begin
     id 5 
     name ltoes
     direction 1.53547e-011 -4.2174e-011 1   
     length 1.02054   
     axis -90 7.62852e-016 20   XYZ
    dof rx
    limits (-90.0 20.0)
  end
  begin
     id 6 
     name rhipjoint
     direction -0.558096 -0.746754 0.361784   
     length 2.3932  
     axis 0 0 0  XYZ 
  end
  begin
     id 7 
     name rfemur
     direction -0.34202 -0.939693 0   
     length 7.3886   
     axis 0 0 -20   XYZ
    dof rx ry rz
    limits (-160.0 20.0)
           (-70.0 70.0)
           (-70.0 60.0)
  end
  begin
     id 8 
     name rtibia
     direction -0.34202 -0.939693 0   
     length 7.4839   
     axis 0 0 -20   XYZ
    dof rx
    limits (-10.0 170.0)
 end
 begin
     id 9 
     name rfoot
     direction -0.114619 -0.314914 0.942174   
     length 2.25127  
     axis -90 -7.62852e-016 -20   XYZ
    dof rx rz
    limits (-45.0 90.0)
           (-20.0 70.0)
  end
  begin
     id 10 
     name rtoes
     direction -1.53518e-011 -4.21881e-011 1   
     length 1.11821   
     axis -90 -7.62852e-016 -20   XYZ
    dof rx
    limits (-90.0 20.0)
  end
  begin
     id 11 
     name lowerback
     direction -0.00902269 0.996426 -0.0839821   
     length 2.25052   
     axis 0 0 0   XYZ
    dof rx ry rz
    limits (-20.0 45.0)
           (-30.0 30.0)
           (-30.0 30.0)
  end
  begin
     id 12 
     name upperback
     direction 0.0370973 0.999169 -0.0168941   
     length 2.24876   
     axis 0 0 0   XYZ
    dof rx ry rz
    limits (-20.0 45.0)
           (-30.0 30.0)
           (-30.0 30.0)
  end
  begin
     id 13 
     name thorax
     direction 0.0402726 0.998931 0.0227027   
     length 2.26408   
     axis 0 0 0   XYZ
    dof rx ry rz
    limits (-20.0 45.0)
           (-30.0 30.0)
           (-30.0 30.0)
  end
  begin
     id 14 
     name lowerneck
     direction -0.0733697 0.98508 0.155675   
     length 1.58204   
     axis 0 0 0   XYZ
    dof rx ry rz
    limits (-20.0 45.0)
           (-30.0 30.0)
           (-30.0 30.0)
  end
  begin
     id 15 
     name upperneck
     direction 0.0426554 0.993501 -0.105526   
     length 1.61222   
     axis 0 0 0   XYZ
    dof rx ry rz
    limits (-20.0 45.0)
           (-30.0 30.0)
           (-30.0 30.0)
  end
  begin
     id 16
     name head
     direction 0.020792 0.998384 -0.0528868  
     length 1.61527  
     axis 0 0 0   XYZ
    dof rx ry rz
    limits (-20.0 45.0)
           (-30.0 30.0)
           (-30.0 30.0)
  end
  begin
     id 17 
     name lclavicle
     direction 0.967109 0.155462 -0.201325  
     length 3.59357  
     axis 0 0 0   XYZ
    dof ry rz
    limits (-20.0 10.0)
           (0.0 20.0)
  end
  begin
     id 18 
     name lhumerus
     direction 1 -4.48968e-011 2.38195e-027   
     length 5.38154   
     axis 180 -30 -90   XYZ
    dof rx ry rz
    limits (-60.0 90.0)
           (-90.0 90.0)
           (-90.0 90.0)
  end
  begin
     id 19
     name lradius
     direction 1 -4.48961e-011 4.85371e-027   
     length 3.33312   
     axis 180 -30 -90   XYZ
    dof rx
    limits (-10.0 170.0)
  end
  begin
     id 20
     name lwrist
     direction 1 -4.48961e-011 4.76515e-027   
     length 1.66656   
     axis -3.27502e-015 90 90   XYZ
    dof ry
    limits (-180.0 0.0)
 end
  begin
     id 21 
     name lhand
     direction 1 -4.48951e-011 9.53074e-027   
     length 0.710789   
     axis -6.08098e-015 90 90   XYZ
    dof rx rz
    limits (-90.0 90.0)
           (-45.0 45.0)
  end
  begin
     id 22 
     name lfingers
     direction 1 -4.48953e-011 1.90613e-026   
     length 0.573057   
     axis -1.21619e-014 90 90   XYZ
    dof rx
    limits (0.0 90.0)
  end
  begin
     id 23
     name lthumb
     direction 0.707107 -6.34973e-011 0.707107   
     length 0.822798   
     axis -90 45 -9.86923e-015   XYZ
    dof rx rz
    limits (-45.0 45.0)
           (-45.0 45.0)
  end
  begin
     id 24 
     name rclavicle
     direction -0.9585 0.265289 -0.104398   
     length 3.42039  
     axis 0 0 0   XYZ 
    dof ry rz
    limits (-10.0 20.0)
           (-20.0 0.0)
  end
  begin
     id 25 
     name rhumerus
     direction -1 -4.48977e-011 2.21478e-027  
     length 5.16954   
     axis 180 30 90   XYZ
    dof rx ry rz
    limits (-90.0 60.0)
           (-90.0 90.0)
           (-90.0 90.0)
  end
  begin
     id 26 
     name rradius
     direction -1 -4.48967e-011 5.63677e-027   
     length 3.38287   
     axis 180 30 90   XYZ
    dof rx
    limits (-10.0 170.0)
  end
  begin
     id 27 
     name rwrist
     direction -1 -4.48967e-011 4.76501e-027   
     length 1.69144   
     axis -3.27502e-015 -90 -90   XYZ
    dof ry
    limits (-180.0 0.0)
  end
  begin
     id 28
     name rhand
     direction -1 -4.48902e-011 9.53292e-027   
     length 0.817967   
     axis -6.08098e-015 -90 -90   XYZ
    dof rx rz
    limits (-90.0 90.0)
           (-45.0 45.0)
  end
  begin
     id 29
     name rfingers
     direction -1 -4.49012e-011 1.90561e-026   
     length 0.659466   
     axis -1.21619e-014 -90 -90   XYZ
    dof rx
    limits (0.0 90.0)
  end
  begin
     id 30
     name rthumb
     direction -0.707107 -6.34944e-011 0.707107   
     length 0.946865   
     axis -90 -45 9.86923e-015   XYZ
    dof rx rz
    limits (-45.0 45.0)
           (-45.0 45.0)
  end
:hierarchy
  begin
    root lhipjoint rhipjoint lowerback
    lhipjoint lfemur
    lfemur ltibia
    ltibia lfoot
    lfoot ltoes
    rhipjoint rfemur
    rfemur rtibia
    rtibia rfoot
    rfoot rtoes
    lowerback upperback
    upperback thorax
    thorax lowerneck lclavicle rclavicle
    lowerneck upperneck
    upperneck head
    lclavicle lhumerus
    lhumerus lradius
    lradius lwrist
    lwrist lhand lthumb
    lhand lfingers
    rclavicle rhumerus
    rhumerus rradius
    rradius rwrist
    rwrist rhand rthumb
    rhand rfingers
  end

#!OML:ASF F:\twosubjects\two\wednesday\Session 1\Justin1.ASF
:FULLY-SPECIFIED
:DEGREES
347
root -5.5985 15.9206 -12.4114 -703.717 60.1856 -351.117
lowerback 13.0504 -1.45562 -10.1891
upperback 0.118278 -3.45982 -0.403912
thorax -6.64138 -1.34637 5.94268
lowerneck -22.4985 -2.80691 -10.0424
upperneck 10.4388 -2.66421 11.9846
head 7.16812 -0.558504 5.31122
rclavicle 4.13472e-014 2.42517e-014
rhumerus -29.3595 4.38705 -74.2925
rradius 57.7999
rwrist -23.7765
rhand -16.7946 13.4351
rfingers 7.12502
rthumb 9.43351 -16.3338
lclavicle 4.13472e-014 2.42517e-014
lhumerus -8.70793 -14.4501 83.1105
lradius 60.1027
lwrist 9.55879
lhand -6.70295 39.5355
lfingers 7.12502
lthumb 19.1565 68.6121
rfemur -33.8711 -16.3419 10.6972
rtibia 65.7528
rfoot -28.1107 -2.24847
rtoes -17.2835
lfemur -7.86297 8.28926 -4.61117
ltibia 41.4294
lfoot -12.2043 13.5741
ltoes -22.7948
348
root -5.59216 15.988 -12.2436 -703.705 59.5619 -351.657
lowerback 12.4299 -1.79288 -10.0262
upperback -0.23906 -3.86398 -0.81005
thorax -6.64797 -1.54403 5.45564
lowerneck -22.2706 -2.22636 -8.68317
upperneck 10.4769 -2.25565 11.69
head 7.07699 -0.335899 5.03214
rclavicle 2.42517e-014 -3.29983e-014
rhumerus -30.7477 4.79381 -75.0579
rradius 58.3307
rwrist -24.4463
rhand -18.7767 14.2961
rfingers 7.12502
rthumb 7.52066 -15.5502
lclavicle 2.42517e-014 -3.29983e-014
lhumerus -8.60416 -12.8524 80.8006
lradius 60.8043
lwrist 11.4773
lhand -6.44555 41.3108
lfingers 7.12502
lthumb 19.404 70.3626
rfemur -33.4107 -17.4094 11.7217
rtibia 63.9977
rfoot -28.4535 -1.22264
rtoes -14.0406
lfemur -9.2107 9.30485 -4.56006
ltibia 43.3773
lfoot -11.7478 14.299
ltoes -19.1752
349
root -5.58338 16.0771 -12.0209 -705.145 60.1687 -352.984
lowerback 12.3666 -2.07871 -9.894
upperback -0.231958 -4.19823 -0.502484
thorax -6.53423 -1.71558 5.75923
lowerneck -21.9726 -2.0966 -8.80311
upperneck 10.3278 -2.06999 11.7942
head 6.96247 -0.252481 5.10406
rclavicle 8.21975e-014 2.06736e-014
rhumerus -32.0636 5.03465 -74.6336
rradius 58.8842
rwrist -24.809
rhand -20.7423 13.5991
rfingers 7.12502
rthumb 5.62313 -16.3063
lclavicle 8.21975e-014 2.06736e-014
lhumerus -8.3169 -11.5072 79.4233
lradius 61.4282
lwrist 13.7631
lhand -5.5715 42.2921
lfingers 7.12502
lthumb 20.2442 71.2571
rfemur -31.4046 -18.9002 13.3452
rtibia 62.1285
rfoot -29.2858 -0.64457
rtoes -11.4945
lfemur -9.97908 9.8028 -3.34818
ltibia 45.2454
lfoot -12.1419 14.2546
ltoes -18.4733
350
root -5.57094 16.1743 -11.8785 -707.484 59.2678 -356.106
lowerback 11.7724 -1.95188 -8.57691
upperback -0.414033 -3.77595 -0.116499
thorax -6.51685 -1.54926 5.34116
lowerneck -21.8661 -1.89124 -8.41746
upperneck 10.2557 -1.83786 11.3507
head 6.88489 -0.169624 4.91315
rclavicle -1.20265e-014 -1.90833e-014
rhumerus -33.1381 5.32775 -73.9697
rradius 59.3956
rwrist -25.0183
rhand -20.3564 14.1052
rfingers 7.12502
rthumb 5.99577 -15.7899
lclavicle -1.20265e-014 -1.90833e-014
lhumerus -7.76346 -10.0437 78.1324
lradius 61.7504
lwrist 16.3887
lhand -3.14688 41.6841
lfingers 7.12502
lthumb 22.573 70.3844
rfemur -30.8018 -19.3257 15.6617
rtibia 60.0791
rfoot -29.2723 0.330573
rtoes -9.9624
lfemur -11.3237 11.8665 -1.98417
ltibia 47.3652
lfoot -12.8516 13.9242
ltoes -17.1014
351
root -5.56445 16.271 -11.7424 -705.56 57.9483 -353.341
lowerback 12.2024 -1.61943 -10.3294
upperback -0.473598 -3.65738 -0.575136
thorax -6.77537 -1.41645 5.8401
lowerneck -22.0203 -1.78518 -8.44003
upperneck 10.5645 -1.68139 11.2209
head 6.99104 -0.102182 4.89992
rclavicle 2.46493e-014 -6.36111e-015
rhumerus -34.1811 5.80855 -73.4027
rradius 59.8264
rwrist -25.2524
rhand -20.6738 14.5513
rfingers 7.12502
rthumb 5.68932 -15.3523
lclavicle 2.46493e-014 -6.36111e-015
lhumerus -7.18068 -8.78574 76.7064
lradius 61.9019
lwrist 19.8146
lhand -1.80894 42.3289
lfingers 7.12502
lthumb 23.8566 70.8673
rfemur -29.3139 -20.3229 14.1625
rtibia 58.0272
rfoot -28.7255 1.93802
rtoes -6.17517
lfemur -11.9014 13.1795 -4.04201
ltibia 49.3074
lfoot -14.1257 13.0564
ltoes -14.0369
352
root -5.55249 16.3655 -11.6015 -708.493 57.7061 -356.687
lowerback 12.2759 -1.62456 -8.52996
upperback -0.56641 -3.39952 -0.183198
thorax -7.03083 -1.33676 5.21852
lowerneck -22.0203 -1.71144 -8.70093
upperneck 10.8823 -1.54615 11.3252
head 7.08271 -0.0382222 5.00266
rclavicle 2.0773e-014 6.36111e-015
rhumerus -35.3266 6.02914 -72.9199
rradius 60.1293
rwrist -24.9982
rhand -20.2988 15.2408
rfingers 7.12502
rthumb 6.05136 -14.6527
lclavicle 2.0773e-014 6.36111e-015
lhumerus -6.93645 -7.9593 75.1
lradius 62.3154
lwrist 23.7945
lhand -3.188 44.879
lfingers 7.12502
lthumb 22.5335 73.5841
rfemur -27.8546 -21.4113 16.5696
rtibia 55.7028
rfoot -27.9905 3.11976
rtoes -1.91614
lfemur -13.114 14.5992 -2.29852
ltibia 51.422
lfoot -15.2123 11.3508
ltoes -13.0625
353
root -5.54328 16.4544 -11.453 -711.68 57.2861 -360.409
lowerback 12.2757 -1.50721 -6.67606
upperback -0.644006 -2.95048 0.276738
thorax -7.24013 -1.17095 4.59537
lowerneck -21.5031 -1.54374 -8.7114
upperneck 10.4551 -1.30963 11.2548
head 6.83283 0.0517987 4.99177
rclavicle -4.49253e-014 7.15625e-015
rhumerus -36.5461 5.93188 -72.4076
rradius 60.3767
rwrist -24.5974
rhand -19.3642 15.5244
rfingers 7.12502
rthumb 6.95359 -14.3414
lclavicle -4.49253e-014 7.15625e-015
lhumerus -6.87698 -7.16535 73.5201
lradius 62.8135
lwrist 27.5508
lhand -5.67829 47.9851
lfingers 7.12502
lthumb 20.1416 76.9609
rfemur -26.5321 -22.2884 19.2129
rtibia 53.4982
rfoot -27.3227 3.75175
rtoes -3.54107
lfemur -14.38 16.2083 -0.355537
ltibia 53.3871
lfoot -15.9001 9.72318
ltoes -15.0093
354
root -5.53936 16.551 -11.2972 -713.185 56.6368 -362.148
lowerback 12.2889 -1.31406 -6.16607
upperback -0.669349 -2.59856 0.609618
thorax -7.32376 -1.00969 4.60476
lowerneck -20.7025 -1.20727 -8.80839
upperneck 9.18136 -0.77353 11.1553
head 6.23527 0.270733 4.99595
rclavicle 2.21645e-014 1.59028e-014
rhumerus -37.464 6.28262 -71.7974
rradius 60.5416
rwrist -24.3757
rhand -17.4942 15.9864
rfingers 7.12502
rthumb 8.75843 -13.8119
lclavicle 2.21645e-014 1.59028e-014
lhumerus -6.64835 -5.93877 72.0846
lradius 62.9482
lwrist 31.1568
lhand -0.245062 47.1878
lfingers 7.12502
lthumb 25.3556 75.5221
rfemur -25.2098 -22.8887 20.551
rtibia 51.4448
rfoot -26.5395 4.85469
rtoes -4.9435
lfemur -15.6508 17.8456 0.438877
ltibia 55.2684
lfoot -16.7927 7.67936
ltoes -15.7781
355
root -5.53695 16.6549 -11.148 -714.762 55.9227 -364.211
lowerback 12.1437 -1.20421 -5.47665
upperback -0.712601 -2.31297 1.05371
thorax -7.32864 -0.88845 4.63533
lowerneck -21.6871 -1.35819 -9.00968
upperneck 10.5048 -0.932504 11.0649
head 6.83598 0.206405 5.02448
rclavicle -4.18442e-014 -1.59028e-015
rhumerus -38.0452 6.96257 -71.283
rradius 60.4507
rwrist -24.0465
rhand -18.7013 16.3604
rfingers 7.12502
rthumb 7.5935 -13.4832
lclavicle -4.18442e-014 -1.59028e-015
lhumerus -6.36232 -4.5695 70.57
lradius 62.7522
lwrist 34.8919
lhand 1.8788 47.8733
lfingers 7.12502
lthumb 27.3887 75.9028
rfemur -24.1817 -23.0992 22.0702
rtibia 49.6721
rfoot -25.3462 6.45285
rtoes -2.83849
lfemur -17.1101 19.3911 1.36302
ltibia 56.9834
lfoot -17.7378 5.45684
ltoes -15.1596
356
root -5.52699 16.7602 -11.0049 -715.597 55.0616 -365.413
lowerback 12.0108 -1.02254 -5.03518
upperback -0.865835 -1.99506 1.19174
thorax -7.46403 -0.740865 4.47632
lowerneck -22.0634 -1.37429 -8.89658
upperneck 11.1124 -0.986498 10.9583
head 7.09882 0.18628 4.98269
rclavicle 2.65378e-014 -1.19271e-014
rhumerus -38.9015 7.38045 -71.0514
rradius 60.2423
rwrist -23.4973
rhand -20.9111 16.5239
rfingers 7.12502
rthumb 5.46018 -13.3858
lclavicle 2.65378e-014 -1.19271e-014
lhumerus -6.31584 -3.72483 68.7687
lradius 62.6297
lwrist 38.8243
lhand 2.09182 49.528
lfingers 7.12502
lthumb 27.5924 77.5252
rfemur -23.3615 -23.2669 23.0693
rtibia 48.166
rfoot -23.6915 7.80604
rtoes -2.23329
lfemur -18.5858 20.6076 1.56171
ltibia 58.4891
lfoot -18.6319 4.00542
ltoes -15.2582
357
root -5.50606 16.8713 -10.8658 -715.957 54.2672 -365.909
lowerback 11.9864 -0.862451 -4.78934
upperback -0.996122 -1.75408 1.12392
thorax -7.62616 -0.627383 4.22426
lowerneck -21.8828 -1.1049 -8.20309
upperneck 11.0799 -0.737692 10.3337
head 7.02422 0.272951 4.67997
rclavicle 2.33572e-014 1.11319e-014
rhumerus -39.8873 7.79632 -70.9759
rradius 60.0824
rwrist -23.0446
rhand -14.9945 17.2812
rfingers 7.12502
rthumb 11.17 -12.4014
lclavicle 2.33572e-014 1.11319e-014
lhumerus -6.50461 -2.9234 66.9239
lradius 62.5628
lwrist 42.3263
lhand 2.35866 50.993
lfingers 7.12502
lthumb 27.8476 78.9491
rfemur -22.3944 -23.5213 23.4329
rtibia 46.8649
rfoot -21.5656 9.45409
rtoes -0.545026
lfemur -20.0068 21.7277 1.20729
ltibia 59.8213
lfoot -19.3195 3.27225
ltoes -18.6325
358
root -5.48372 16.9851 -10.7329 -716.736 53.5672 -366.859
lowerback 12.005 -0.809843 -4.26576
upperback -0.992838 -1.60316 1.19275
thorax -7.6596 -0.573194 3.97445
lowerneck -21.9387 -0.761638 -7.82405
upperneck 11.0998 -0.319894 9.94803
head 6.99474 0.455056 4.5365
rclavicle 4.6615e-014 -2.54444e-014
rhumerus -40.4237 8.36479 -70.8933
rradius 59.8278
rwrist -22.944
rhand -20.3236 16.4937
rfingers 7.12502
rthumb 6.02745 -13.4006
lclavicle 4.6615e-014 -2.54444e-014
lhumerus -6.65644 -1.59917 65.1698
lradius 62.2613
lwrist 44.8676
lhand 4.00881 51.4696
lfingers 7.12502
lthumb 29.4241 79.1596
rfemur -21.3922 -23.63 23.9445
rtibia 45.8015
rfoot -19.1667 10.9621
rtoes 0.688526
lfemur -21.4261 22.6638 1.11652
ltibia 60.9833
lfoot -19.7924 2.6148
ltoes -23.0111
359
root -5.4644 17.1048 -10.5983 -717.432 52.9228 -367.659
lowerback 12.0209 -0.774321 -3.99207
upperback -0.879791 -1.50103 1.35985
thorax -7.55867 -0.535625 3.97741
lowerneck -22.2726 -0.474096 -8.06851
upperneck 11.1247 0.137528 10.1184
head 7.01278 0.687376 4.69469
rclavicle 9.96905e-014 2.22639e-014
rhumerus -40.5512 8.80067 -70.6512
rradius 59.4382
rwrist -22.7309
rhand -16.9368 17.1785
rfingers 7.12502
rthumb 9.29636 -12.5965
lclavicle 9.96905e-014 2.22639e-014
lhumerus -6.58202 -0.075874 63.5761
lradius 61.5389
lwrist 46.7015
lhand 6.11603 51.7403
lfingers 7.12502
lthumb 31.4339 79.0581
rfemur -20.4864 -23.4375 24.3227
rtibia 45.062
rfoot -16.6136 12.2845
rtoes 1.82984
lfemur -22.8265 23.2666 0.962398
ltibia 61.9512
lfoot -20.2755 1.54688
ltoes -24.2661
360
root -5.44233 17.2362 -10.4575 -717.574 52.3468 -367.606
lowerback 12.1251 -0.760714 -4.20762
upperback -0.713829 -1.51403 1.36774
thorax -7.43315 -0.539187 4.11008
lowerneck -22.3163 -0.116831 -8.00103
upperneck 10.9032 0.653282 9.90092
head 6.89614 0.917922 4.66446
rclavicle 2.82274e-014 1.59028e-015
rhumerus -40.6688 9.08132 -70.4527
rradius 58.9997
rwrist -22.1819
rhand -18.5264 17.0412
rfingers 7.12502
rthumb 7.76227 -12.7963
lclavicle 2.82274e-014 1.59028e-015
lhumerus -6.661 1.08531 61.9176
lradius 60.7009
lwrist 48.4196
lhand 7.17613 52.2185
lfingers 7.12502
lthumb 32.4433 79.3345
rfemur -19.5725 -23.1443 23.9934
rtibia 44.6447
rfoot -13.5692 13.7567
rtoes 4.80005
lfemur -23.9808 23.3893 0.282733
ltibia 62.6931
lfoot -20.7511 0.250861
ltoes -24.0697
